<svg id="wave" style="transform:rotate(0deg); transition: 0.3s" viewBox="0 0 1440 490" version="1.1" xmlns="http://www.w3.org/2000/svg"><defs><linearGradient id="sw-gradient-0" x1="0" x2="0" y1="1" y2="0"><stop stop-color="rgba(199, 210, 254, 1)" offset="0%"></stop><stop stop-color="rgba(254, 202, 202, 1)" offset="100%"></stop></linearGradient></defs><path style="transform:translate(0, 0px); opacity:1" fill="url(#sw-gradient-0)" d="M0,147L26.7,163.3C53.3,180,107,212,160,204.2C213.3,196,267,147,320,171.5C373.3,196,427,294,480,318.5C533.3,343,587,294,640,285.8C693.3,278,747,310,800,334.8C853.3,359,907,376,960,351.2C1013.3,327,1067,261,1120,236.8C1173.3,212,1227,229,1280,245C1333.3,261,1387,278,1440,294C1493.3,310,1547,327,1600,351.2C1653.3,376,1707,408,1760,367.5C1813.3,327,1867,212,1920,147C1973.3,82,2027,65,2080,49C2133.3,33,2187,16,2240,8.2C2293.3,0,2347,0,2400,57.2C2453.3,114,2507,229,2560,261.3C2613.3,294,2667,245,2720,253.2C2773.3,261,2827,327,2880,302.2C2933.3,278,2987,163,3040,155.2C3093.3,147,3147,245,3200,302.2C3253.3,359,3307,376,3360,359.3C3413.3,343,3467,294,3520,277.7C3573.3,261,3627,278,3680,302.2C3733.3,327,3787,359,3813,375.7L3840,392L3840,490L3813.3,490C3786.7,490,3733,490,3680,490C3626.7,490,3573,490,3520,490C3466.7,490,3413,490,3360,490C3306.7,490,3253,490,3200,490C3146.7,490,3093,490,3040,490C2986.7,490,2933,490,2880,490C2826.7,490,2773,490,2720,490C2666.7,490,2613,490,2560,490C2506.7,490,2453,490,2400,490C2346.7,490,2293,490,2240,490C2186.7,490,2133,490,2080,490C2026.7,490,1973,490,1920,490C1866.7,490,1813,490,1760,490C1706.7,490,1653,490,1600,490C1546.7,490,1493,490,1440,490C1386.7,490,1333,490,1280,490C1226.7,490,1173,490,1120,490C1066.7,490,1013,490,960,490C906.7,490,853,490,800,490C746.7,490,693,490,640,490C586.7,490,533,490,480,490C426.7,490,373,490,320,490C266.7,490,213,490,160,490C106.7,490,53,490,27,490L0,490Z"></path><defs><linearGradient id="sw-gradient-1" x1="0" x2="0" y1="1" y2="0"><stop stop-color="rgba(199, 210, 254, 1)" offset="0%"></stop><stop stop-color="rgba(254, 202, 202, 1)" offset="100%"></stop></linearGradient></defs><path style="transform:translate(0, 50px); opacity:0.9" fill="url(#sw-gradient-1)" d="M0,0L26.7,49C53.3,98,107,196,160,212.3C213.3,229,267,163,320,147C373.3,131,427,163,480,187.8C533.3,212,587,229,640,269.5C693.3,310,747,376,800,383.8C853.3,392,907,343,960,343C1013.3,343,1067,392,1120,351.2C1173.3,310,1227,180,1280,106.2C1333.3,33,1387,16,1440,65.3C1493.3,114,1547,229,1600,236.8C1653.3,245,1707,147,1760,106.2C1813.3,65,1867,82,1920,130.7C1973.3,180,2027,261,2080,318.5C2133.3,376,2187,408,2240,351.2C2293.3,294,2347,147,2400,89.8C2453.3,33,2507,65,2560,98C2613.3,131,2667,163,2720,187.8C2773.3,212,2827,229,2880,236.8C2933.3,245,2987,245,3040,245C3093.3,245,3147,245,3200,212.3C3253.3,180,3307,114,3360,130.7C3413.3,147,3467,245,3520,261.3C3573.3,278,3627,212,3680,220.5C3733.3,229,3787,310,3813,351.2L3840,392L3840,490L3813.3,490C3786.7,490,3733,490,3680,490C3626.7,490,3573,490,3520,490C3466.7,490,3413,490,3360,490C3306.7,490,3253,490,3200,490C3146.7,490,3093,490,3040,490C2986.7,490,2933,490,2880,490C2826.7,490,2773,490,2720,490C2666.7,490,2613,490,2560,490C2506.7,490,2453,490,2400,490C2346.7,490,2293,490,2240,490C2186.7,490,2133,490,2080,490C2026.7,490,1973,490,1920,490C1866.7,490,1813,490,1760,490C1706.7,490,1653,490,1600,490C1546.7,490,1493,490,1440,490C1386.7,490,1333,490,1280,490C1226.7,490,1173,490,1120,490C1066.7,490,1013,490,960,490C906.7,490,853,490,800,490C746.7,490,693,490,640,490C586.7,490,533,490,480,490C426.7,490,373,490,320,490C266.7,490,213,490,160,490C106.7,490,53,490,27,490L0,490Z"></path><defs><linearGradient id="sw-gradient-2" x1="0" x2="0" y1="1" y2="0"><stop stop-color="rgba(199, 210, 254, 1)" offset="0%"></stop><stop stop-color="rgba(254, 202, 202, 1)" offset="100%"></stop></linearGradient></defs><path style="transform:translate(0, 100px); opacity:0.8" fill="url(#sw-gradient-2)" d="M0,147L26.7,130.7C53.3,114,107,82,160,114.3C213.3,147,267,245,320,294C373.3,343,427,343,480,359.3C533.3,376,587,408,640,383.8C693.3,359,747,278,800,261.3C853.3,245,907,294,960,269.5C1013.3,245,1067,147,1120,122.5C1173.3,98,1227,147,1280,163.3C1333.3,180,1387,163,1440,155.2C1493.3,147,1547,147,1600,122.5C1653.3,98,1707,49,1760,57.2C1813.3,65,1867,131,1920,130.7C1973.3,131,2027,65,2080,106.2C2133.3,147,2187,294,2240,367.5C2293.3,441,2347,441,2400,432.8C2453.3,425,2507,408,2560,351.2C2613.3,294,2667,196,2720,147C2773.3,98,2827,98,2880,89.8C2933.3,82,2987,65,3040,65.3C3093.3,65,3147,82,3200,114.3C3253.3,147,3307,196,3360,204.2C3413.3,212,3467,180,3520,163.3C3573.3,147,3627,147,3680,196C3733.3,245,3787,343,3813,392L3840,441L3840,490L3813.3,490C3786.7,490,3733,490,3680,490C3626.7,490,3573,490,3520,490C3466.7,490,3413,490,3360,490C3306.7,490,3253,490,3200,490C3146.7,490,3093,490,3040,490C2986.7,490,2933,490,2880,490C2826.7,490,2773,490,2720,490C2666.7,490,2613,490,2560,490C2506.7,490,2453,490,2400,490C2346.7,490,2293,490,2240,490C2186.7,490,2133,490,2080,490C2026.7,490,1973,490,1920,490C1866.7,490,1813,490,1760,490C1706.7,490,1653,490,1600,490C1546.7,490,1493,490,1440,490C1386.7,490,1333,490,1280,490C1226.7,490,1173,490,1120,490C1066.7,490,1013,490,960,490C906.7,490,853,490,800,490C746.7,490,693,490,640,490C586.7,490,533,490,480,490C426.7,490,373,490,320,490C266.7,490,213,490,160,490C106.7,490,53,490,27,490L0,490Z"></path><defs><linearGradient id="sw-gradient-3" x1="0" x2="0" y1="1" y2="0"><stop stop-color="rgba(199, 210, 254, 1)" offset="0%"></stop><stop stop-color="rgba(254, 202, 202, 1)" offset="100%"></stop></linearGradient></defs><path style="transform:translate(0, 150px); opacity:0.7" fill="url(#sw-gradient-3)" d="M0,441L26.7,408.3C53.3,376,107,310,160,236.8C213.3,163,267,82,320,98C373.3,114,427,229,480,253.2C533.3,278,587,212,640,196C693.3,180,747,212,800,187.8C853.3,163,907,82,960,57.2C1013.3,33,1067,65,1120,89.8C1173.3,114,1227,131,1280,114.3C1333.3,98,1387,49,1440,40.8C1493.3,33,1547,65,1600,89.8C1653.3,114,1707,131,1760,155.2C1813.3,180,1867,212,1920,187.8C1973.3,163,2027,82,2080,89.8C2133.3,98,2187,196,2240,228.7C2293.3,261,2347,229,2400,253.2C2453.3,278,2507,359,2560,343C2613.3,327,2667,212,2720,163.3C2773.3,114,2827,131,2880,147C2933.3,163,2987,180,3040,228.7C3093.3,278,3147,359,3200,400.2C3253.3,441,3307,441,3360,383.8C3413.3,327,3467,212,3520,163.3C3573.3,114,3627,131,3680,179.7C3733.3,229,3787,310,3813,351.2L3840,392L3840,490L3813.3,490C3786.7,490,3733,490,3680,490C3626.7,490,3573,490,3520,490C3466.7,490,3413,490,3360,490C3306.7,490,3253,490,3200,490C3146.7,490,3093,490,3040,490C2986.7,490,2933,490,2880,490C2826.7,490,2773,490,2720,490C2666.7,490,2613,490,2560,490C2506.7,490,2453,490,2400,490C2346.7,490,2293,490,2240,490C2186.7,490,2133,490,2080,490C2026.7,490,1973,490,1920,490C1866.7,490,1813,490,1760,490C1706.7,490,1653,490,1600,490C1546.7,490,1493,490,1440,490C1386.7,490,1333,490,1280,490C1226.7,490,1173,490,1120,490C1066.7,490,1013,490,960,490C906.7,490,853,490,800,490C746.7,490,693,490,640,490C586.7,490,533,490,480,490C426.7,490,373,490,320,490C266.7,490,213,490,160,490C106.7,490,53,490,27,490L0,490Z"></path></svg>
